<?xml version="1.0" standalone="no"?><!DOCTYPE svg PUBLIC "-//W3C//DTD SVG 1.1//EN" "http://www.w3.org/Graphics/SVG/1.1/DTD/svg11.dtd"><svg t="1545216886178" class="icon" style="" viewBox="0 0 1024 1024" version="1.1" xmlns="http://www.w3.org/2000/svg" p-id="1644" xmlns:xlink="http://www.w3.org/1999/xlink" width="32" height="32"><defs><style type="text/css"></style></defs><path d="M870.489043 688.194783C831.443478 767.554783 767.198609 831.977739 688.083478 871.15687 675.817739 957.506783 601.755826 1024 512 1024 422.088348 1024 347.937391 957.306435 335.849739 870.733913 256.556522 831.643826 192.200348 767.309913 153.065739 688.128 66.582261 675.929043 0 601.84487 0 512 0 422.199652 66.537739 348.137739 152.954435 335.894261 192.089043 256.578783 256.489739 192.155826 335.872 153.021217 348.093217 66.56 422.177391 0 512 0 601.689043 0 675.661913 66.359652 688.061217 152.598261 767.265391 191.821913 831.554783 256.333913 870.600348 335.827478 957.239652 347.870609 1024 422.043826 1024 512 1024 602.000696 957.17287 676.196174 870.489043 688.194783ZM512 934.956522C561.174261 934.956522 601.043478 895.087304 601.043478 845.913043 601.043478 796.738783 561.174261 756.869565 512 756.869565 462.825739 756.869565 422.956522 796.738783 422.956522 845.913043 422.956522 895.087304 462.825739 934.956522 512 934.956522ZM178.086957 422.956522C128.912696 422.956522 89.043478 462.825739 89.043478 512 89.043478 561.174261 128.912696 601.043478 178.086957 601.043478 227.261217 601.043478 267.130435 561.174261 267.130435 512 267.130435 462.825739 227.261217 422.956522 178.086957 422.956522ZM512 89.043478C462.825739 89.043478 422.956522 128.912696 422.956522 178.086957 422.956522 227.261217 462.825739 267.130435 512 267.130435 561.174261 267.130435 601.043478 227.261217 601.043478 178.086957 601.043478 128.912696 561.174261 89.043478 512 89.043478ZM676.10713 247.362783C649.082435 311.296 585.772522 356.173913 512 356.173913 438.160696 356.173913 374.806261 311.229217 347.826087 247.184696 307.021913 272.539826 272.65113 307.088696 247.296 347.870609 311.273739 374.873043 356.173913 438.182957 356.173913 512 356.173913 585.750261 311.340522 649.037913 247.429565 676.08487 272.806957 716.777739 307.155478 751.282087 347.91513 776.570435 374.939826 712.659478 438.227478 667.826087 512 667.826087 585.705739 667.826087 648.926609 712.592696 676.018087 776.414609 716.621913 751.037217 751.037217 716.688696 776.325565 675.973565 712.548174 648.859826 667.826087 585.661217 667.826087 512 667.826087 438.294261 712.614957 375.02887 776.45913 347.959652 751.170783 307.177739 716.733217 272.784696 676.10713 247.362783ZM845.913043 422.956522C796.738783 422.956522 756.869565 462.825739 756.869565 512 756.869565 561.174261 796.738783 601.043478 845.913043 601.043478 895.087304 601.043478 934.956522 561.174261 934.956522 512 934.956522 462.825739 895.087304 422.956522 845.913043 422.956522Z" p-id="1645" fill="#42CAC7"></path></svg>