<?xml version="1.0" standalone="no"?><!DOCTYPE svg PUBLIC "-//W3C//DTD SVG 1.1//EN" "http://www.w3.org/Graphics/SVG/1.1/DTD/svg11.dtd"><svg t="1545216933116" class="icon" style="" viewBox="0 0 1024 1024" version="1.1" xmlns="http://www.w3.org/2000/svg" p-id="1937" xmlns:xlink="http://www.w3.org/1999/xlink" width="32" height="32"><defs><style type="text/css"></style></defs><path d="M637.963409 882.736673 637.963409 769.94991l-259.814786 0.299829 0 114.886587-52.535623 28.28623c0 0-17.429665 29.785374 8.401688 28.858258l346.884315 0c0 0 24.030261-12.002358 12.029457-24.057929C680.89798 906.193921 637.963409 882.736673 637.963409 882.736673zM868.320096 76.592422 147.493119 76.592422c-47.762727 0-86.49543 38.786375-86.49543 86.62901l0 490.914776c0 47.842635 38.733727 85.7285 86.49543 85.7285l720.826977 0c47.761704 0 86.49543-37.885865 86.49543-85.7285L954.815527 163.220409C954.815527 115.378797 916.0818 76.592422 868.320096 76.592422zM521.327307 713.379497c-4.228474 1.363044-9.628683-6.901177-14.320734-6.901177-7.800983 0-14.238866 6.955412-20.567251 3.301186-13.010848-7.446599-23.595338-17.892509-23.595338-42.114167 0-20.812001 3.873373-43.640939 27.958894-38.759769 2.890958-0.626263 8.619661 14.402011 11.701986 14.402011 5.265126 0 15.739094-13.501502 20.403515-11.783371 4.282712 1.608637 11.865722 2.946099 15.411623 5.755074 4.39221 3.491521 14.620575 13.311167 10.555836 16.175401-12.384559-0.900509-27.440057 0.927115-27.440057 14.210653 0 24.384363 29.51336 14.619976 29.51336 14.619976S549.040597 703.886285 521.327307 713.379497zM505.206503 625.25032c0-9.028631 16.229278-18.956747 16.229278-18.956747C532.237221 623.450325 505.206503 625.25032 505.206503 625.25032zM897.151906 537.721825c0 31.885198-25.804746 58.643632-57.664644 58.643632L176.324929 596.365456c-31.832267 0-57.66362-26.75741-57.66362-58.643632L118.661309 192.106296c0-31.912827 25.831353-58.670238 57.66362-58.670238l663.162334 0c31.859897 0 57.664644 26.75741 57.664644 58.670238L897.151906 537.721825z" p-id="1938" fill="#42CAC7"></path></svg>