<?xml version="1.0" standalone="no"?><!DOCTYPE svg PUBLIC "-//W3C//DTD SVG 1.1//EN" "http://www.w3.org/Graphics/SVG/1.1/DTD/svg11.dtd"><svg t="1537456424470" class="icon" style="" viewBox="0 0 1024 1024" version="1.1" xmlns="http://www.w3.org/2000/svg" p-id="1876" xmlns:xlink="http://www.w3.org/1999/xlink" width="30" height="30"><defs><style type="text/css"></style></defs><path d="M452 1021.6H48.8c-25.6 0-45.6-20.8-45.6-45.6V572c0-25.6 20.8-45.6 45.6-45.6s45.6 20.8 45.6 45.6v357.6h357.6c25.6 0 45.6 20.8 45.6 45.6 0 25.6-20.8 46.4-45.6 46.4z" p-id="1877" fill="#FFFFFf"></path><path d="M48.8 1021.6c-12 0-23.2-4.8-32.8-13.6-17.6-17.6-17.6-47.2 0-64.8l396.8-396.8c17.6-17.6 47.2-17.6 64.8 0 17.6 17.6 17.6 47.2 0 64.8L80.8 1008c-8.8 8.8-20.8 13.6-32 13.6z" p-id="1878" fill="#FFFFFf"></path><path d="M979.2 494.4c-25.6 0-45.6-20.8-45.6-45.6V91.2H576c-25.6 0-45.6-20.8-45.6-45.6S551.2 0 576 0h403.2c25.6 0 45.6 20.8 45.6 45.6V448c0 25.6-20.8 46.4-45.6 46.4z" p-id="1879" fill="#FFFFFf"></path><path d="M581.6 488c-12 0-23.2-4.8-32.8-13.6-17.6-17.6-17.6-47.2 0-64.8l396.8-396.8c17.6-17.6 47.2-17.6 64.8 0 17.6 17.6 17.6 47.2 0 64.8L614.4 474.4c-8.8 8.8-20.8 13.6-32.8 13.6z" p-id="1880" fill="#FFFFFf"></path></svg>