<?xml version="1.0" standalone="no"?><!DOCTYPE svg PUBLIC "-//W3C//DTD SVG 1.1//EN" "http://www.w3.org/Graphics/SVG/1.1/DTD/svg11.dtd"><svg t="1545222416664" class="icon" style="" viewBox="0 0 1024 1024" version="1.1" xmlns="http://www.w3.org/2000/svg" p-id="1783" data-spm-anchor-id="a313x.7781069.0.i1" xmlns:xlink="http://www.w3.org/1999/xlink" width="32" height="32"><defs><style type="text/css"></style></defs><path d="M516.707 177.462c-44.806-6.313-90.826-177.367-90.51-177.462-32.705 9.657-296.591 87.23-194.25 155.487 170.79 113.917 163.249 343.849-90.017 536.020-355.001 269.361 351.323 347.154 361.381 330.215 175.072-294.863 92.801-512.028 92.801-512.028 0 0 205.433-66.694 382.934-93.673 22.908-3.481-101.257-187.673-462.338-238.557v0zM795.681 282.3c0 0-126.681 35.189-185.33 65.687 0 0 32.842-102.048 31.67-119.643 0 0 126.681 35.189 153.661 53.955v0zM582.201 347.988c0 0-58.076-34.017-78.89-39.881l123.465-79.763c0 0 0 43.399-44.574 119.643v0zM477.805 546.218l104.395 62.167c-15.247 15.247-115.409 62.167-115.409 62.167 14.79-35.189 11.014-124.337 11.014-124.337v0zM494.228 541.527l90.32-30.667c8.21 31.501 5.861 83.451 5.861 83.451-25.804-10.557-96.182-52.784-96.182-52.784v0zM278.403 746.796c0 0 80.935-137.237 78-152.485 0 0 9.146 37.536 68.795 91.491 0 0-43.575 29.323-146.794 60.993v0zM419.389 712.782c0 0-16.086 74.836-54.902 133.131 0 0-56.761-22.873-97.815-76.828 0 0 137.698-45.746 152.717-56.302v0zM445.882 322.183c0 0-45.999 44.569-73.897 70.378 0 0-1.172-97.356-7.499-100.876 0 0 56.51 14.076 81.396 30.498v0zM371.985 263.534l78.844-68.031c0 0 19.938 22.285 15.247 99.701 0 0-72.060-26.979-94.092-31.67v0zM456.692 342.122c0 0-12.9 64.516-43.399 103.223 0 0-28.658-24.633-41.308-32.846 0 0 76.497-63.34 84.707-70.378v0zM405.186 488.743c0 0 22.183 14.076 19.836 49.265 0 0-147.794 66.858-170.079 82.107 0 0 142.132-117.296 150.243-131.372v0zM371.985 587.271l80.016-32.842c0 0 11.728 55.127-14.076 116.124 0 0-40.615-23.556-65.941-83.282v0zM445.882 532.142c0 0-9.127-59.821-20.86-69.203 0 0 51.612-24.633 127.856-69.206 0 0-96.692 123.163-106.996 138.409v0zM452.001 425.403c0 0 28.15-77.415 26.979-95.010l73.897 39.879-100.876 55.131zM602.142 223.654c-8.213 3.519-123.163 68.031-123.163 68.031 17.595-53.955-12.189-96.182-12.189-96.182l135.351 28.15zM478.98 173.214l-82.11-12.9 60.997-37.536 21.113 50.436zM298.341 69.994c7.038-5.866 123.163-57.474 123.163-57.474s32.846 82.107 22.289 82.107c-10.557 0-152.487-18.766-145.45-24.631v0zM445.882 109.874l-73.897 45.746h-18.513c0 0-68.031-69.203-70.378-76.24 0 0 144.94 32.842 162.788 30.495v0zM269.018 87.589l51.612 60.409c0 0-80.935-18.182-86.801-25.22s35.189-35.189 35.189-35.189v0zM260.809 155.62l51.609 17.595 18.77 62.169c0 0-49.265-64.512-70.378-79.763v0zM325.321 173.214l112.605 16.423-84.453 63.34c0-14.076-28.153-79.763-28.153-79.763v0zM358.163 445.345c0 0 19.941 5.861 29.327 17.595 0 0-34.017 30.157-62.169 47.92 0 0 31.67-54.958 32.842-65.515v0zM287.785 558.534c0 0 43.138-39.925 93.839-61.581l-140.756 123.163 46.917-61.581zM318.283 608.386c0 0-34.017 96.182-68.031 130.199 0 0-15.251-18.766-17.595-87.973 0 0 71.55-37.536 85.625-42.227v0zM203.331 663.517c0 0-2.343 37.533 23.461 97.354 0 0-131.372 41.055-152.485 41.055 0 0 14.076-83.282 129.024-138.409v0zM74.307 812.482c38.708 0 146.619-30.498 146.619-30.498-5.863 21.113-87.973 127.856-87.973 127.856-64.512-44.574-58.646-97.356-58.646-97.356v0zM142.338 915.702l98.529-126.679c0 0 43.399 41.055 90.32 66.858l-183.641 66.858-5.207-7.038zM158.761 925.087l186.502-50.436-66.858 100.871c0 0-76.244-10.557-119.643-50.436v0zM371.985 874.651c0 0 77.866 34.014 157.531 35.189 0 0-187.772 72.335-241.731 74.875 0 0 85.119-103.026 84.199-110.064v0zM494.228 1017.75c0 0-130.611-10.835-168.907-33.035 0 0 114.494-22.092 209.146-61.975 0 0-28.511 80.935-40.239 95.010v0zM534.466 903.974c0 0-131.73-23.461-152.843-48.093 0 0 182.983-73.883 189.433-86.79 0 0-14.621 107.309-36.59 134.883v0zM393.351 831.249l58.651-124.333c0 0 86.801 45.746 119.055 52.784 0 0-148.378 72.725-177.703 71.55v0zM576.334 746.796c-52.784-12.9-109.543-56.302-109.543-56.302 25.347-7.038 123.932-65.684 123.932-65.684 7.346 63.34-14.389 121.986-14.389 121.986v0zM473.113 521.585c0 0 103.22-114.948 109.086-129.024 0 0 64.512 31.67 86.801 65.684 0 0-168.654 52.784-195.887 63.34v0zM610.352 364.41c0 0 179.463-68.034 197.058-69.206 0 0-44.574 83.282-118.471 156.003 0 0-40.253-64.523-78.588-86.797v0zM720.609 445.345c0 0 89.147-103.223 106.742-150.141 0 0 118.467 78.588 136.062 114.951 0 0-197.058 16.419-242.804 35.189v0z" p-id="1784" fill="#42CAC7"></path></svg>