<?xml version="1.0" standalone="no"?><!DOCTYPE svg PUBLIC "-//W3C//DTD SVG 1.1//EN" "http://www.w3.org/Graphics/SVG/1.1/DTD/svg11.dtd"><svg t="1545222531991" class="icon" style="" viewBox="0 0 1024 1024" version="1.1" xmlns="http://www.w3.org/2000/svg" p-id="2692" xmlns:xlink="http://www.w3.org/1999/xlink" width="32" height="32"><defs><style type="text/css"></style></defs><path d="M322.777111 559.164835l94.611444 217.609934c0 0-75.284555-85.023862-104.076201-160.843068 0 0-10.302858-29.709222-18.922289 0-9.862132 23.524617-17.072688 79.496733-18.922289 113.533733 0 0-72.278953 27.62842-94.611444-104.068976-22.332491-131.690171 15.627686-198.59372 18.922289-208.145177S127.355168 389.55061 114.631934 237.485924c0 0-2.384252-9.471982-18.922289-28.379821-16.538037-18.915064-76.440556-73.066479-75.69638-113.533733 0.751401-40.47448 13.25066-62.662471 56.766867-75.689155 55.690341-0.859776 125.996867 58.052918 141.920779 75.689155 15.923912 13.06281 95.78912-41.731631 255.454512 104.076201 137.275101 104.928752 221.395837 340.825175 236.524998 387.903309 15.158061 47.107035 8.720581 69.150526 104.068976 94.618669 50.856812 19.97714 152.772737 101.301799 170.3006 141.920779 0 0-170.25725-14.17546-179.765357 18.922289-1.495576 10.122232-0.997051 15.078586 28.387046 37.844578 29.384097 22.780442 170.3006 132.456022 170.3006 132.456022s-165.828321-75.898681-227.067466-160.843068c0 0-29.716447-30.749623 9.464757-47.309335 39.173979-16.538037 85.146687-28.387046 85.146687-28.387046s-80.775559-59.707444-160.843068-75.689155C658.985508 671.925492 651.240302 604.920793 634.99849 578.087123S517.599379 262.180992 313.319579 180.719057c0 0-43.639032-25.338094-104.076201-18.922289 0 0-20.90194 0.5202-66.231624-37.844578 0 0-36.493502-28.206421-18.922289 0 17.578438 28.206421 56.485091 69.006026 66.231624 132.456022s43.617357 99.401623 56.766867 122.99849 21.660566 18.423763 9.464757 56.766867-50.632837 108.70743-28.387046 217.609934c0 0 50.177662-92.711268 66.231624-113.540958C294.397291 540.235321 314.453905 533.602766 322.777111 559.164835z" p-id="2693" fill="#42CAC7"></path></svg>