<?xml version="1.0" standalone="no"?><!DOCTYPE svg PUBLIC "-//W3C//DTD SVG 1.1//EN" "http://www.w3.org/Graphics/SVG/1.1/DTD/svg11.dtd"><svg t="1545224228706" class="icon" style="" viewBox="0 0 1024 1024" version="1.1" xmlns="http://www.w3.org/2000/svg" p-id="3546" xmlns:xlink="http://www.w3.org/1999/xlink" width="32" height="32"><defs><style type="text/css"></style></defs><path d="M983.920617 259.104741c0-67.739802-209.428886-123.060639-466.840132-123.060639-257.975744 0-466.840132 55.320838-467.404631 123.060639l0 0 0 123.060639 0 0C54.75634 448.776185 261.927233 502.403528 517.080485 502.403528c254.588754 0 461.759647-53.627343 466.840132-120.238148l0 0L983.920617 259.104741 983.920617 259.104741z" p-id="3547" fill="#42CAC7"></path><path d="M517.080485 547.563396C276.60419 547.563396 79.594267 500.145535 53.062845 438.615215c-2.257993 4.515987-3.38699 9.596472-3.38699 14.112459l0 123.060639 0 0c5.080485 66.610805 212.251378 120.238148 466.840132 120.238148 254.588754 0 461.759647-53.627343 466.840132-120.238148l0 0L983.356119 453.292172c0-5.080485-1.128997-9.596472-3.38699-14.112459C954.002205 500.145535 756.992282 547.563396 517.080485 547.563396z" p-id="3548" fill="#42CAC7"></path><path d="M517.080485 768.282249c-239.911797 0-437.486218-47.417861-464.017641-108.948181-2.257993 4.515987-3.38699 9.596472-3.38699 14.112459l0 123.060639 0 0c5.080485 66.610805 212.251378 120.238148 466.840132 120.238148 254.588754 0 461.759647-53.627343 466.840132-120.238148l0 0 0-123.060639c0-5.080485-1.128997-9.596472-3.38699-14.112459C954.002205 720.29989 756.992282 768.282249 517.080485 768.282249z" p-id="3549" fill="#42CAC7"></path></svg>