<?xml version="1.0" standalone="no"?><!DOCTYPE svg PUBLIC "-//W3C//DTD SVG 1.1//EN" "http://www.w3.org/Graphics/SVG/1.1/DTD/svg11.dtd"><svg t="1545224314120" class="icon" style="" viewBox="0 0 1024 1024" version="1.1" xmlns="http://www.w3.org/2000/svg" p-id="4383" xmlns:xlink="http://www.w3.org/1999/xlink" width="32" height="32"><defs><style type="text/css"></style></defs><path d="M992.914286 124.708571a149.942857 149.942857 0 0 0-48.274286-54.857142C881.005714 18.285714 817.92 0 717.897143 0H713.142857l-49.371428 8.777143-43.885715 7.314286-15.542857 2.194285a388.937143 388.937143 0 0 0-76.982857-7.68l-29.44 2.377143-54.857143 14.994286-4.205714 1.28a182.857143 182.857143 0 0 0-28.342857 15.36l-18.285715-3.108572c-14.628571-2.56-30.354286-6.217143-46.811428-10.057142a538.697143 538.697143 0 0 0-119.588572-18.285715h-1.645714L171.52 18.285714h-3.657143a177.737143 177.737143 0 0 0-125.074286 98.925715c-71.68 162.742857 53.394286 463.725714 68.388572 498.834285 23.588571 54.857143 52.662857 114.834286 99.291428 125.805715a59.977143 59.977143 0 0 0 13.897143 1.645714A68.754286 68.754286 0 0 0 274.285714 718.628571l88.502857-100.205714a123.428571 123.428571 0 0 0 66.011429 19.382857h27.611429v-0.914285h6.034285a150.674286 150.674286 0 0 1 18.285715 1.645714c18.285714 7.131429 20.297143 21.028571 19.931428 73.142857v52.48c-1.462857 102.4-3.108571 229.668571 88.32 256a102.582857 102.582857 0 0 0 27.977143 3.657143 203.337143 203.337143 0 0 0 59.245714-10.788572c95.268571-29.44 103.497143-119.954286 111.542857-207.542857 2.377143-25.6 4.754286-52.114286 9.325715-77.348571a262.948571 262.948571 0 0 0 3.108571-39.314286 115.2 115.2 0 0 1 4.388572-40.411428c1.828571-3.108571 4.205714-4.571429 12.434285-8.96a156.708571 156.708571 0 0 0 15.908572-9.325715l15.177143-10.422857 1.28-1.28 5.485714-3.84v-1.097143l13.531428-13.531428a512 512 0 0 0 54.857143-78.994286c34.925714-59.611429 45.531429-115.748571 57.965715-180.662857 4.022857-21.028571 8.228571-43.154286 13.531428-66.742857 2.194286-15.725714 19.2-98.56-1.828571-148.845715zM235.702857 678.034286l-2.194286 2.194285c-6.948571 7.131429-8.777143 8.228571-10.422857 7.862858-23.222857-5.485714-51.748571-72.045714-61.805714-95.268572-48.822857-114.285714-118.491429-338.468571-67.84-453.302857A123.245714 123.245714 0 0 1 179.748571 73.142857l47.908572-5.485714a493.714286 493.714286 0 0 1 105.691428 17.005714l27.245715 6.765714a333.165714 333.165714 0 0 0-63.634286 190.171429v16.274286h-1.645714V329.142857c0 13.531429 0 25.782857 1.28 38.217143s0.914286 25.051429 1.28 38.948571l-1.462857 10.057143a267.702857 267.702857 0 0 0-3.84 87.04 198.034286 198.034286 0 0 0 29.805714 76.068572zM482.742857 469.394286a392.228571 392.228571 0 0 1-23.04 62.354285l-18.285714 50.834286h-13.348572c-58.88 0-76.434286-62.354286-81.371428-89.051428a228.937143 228.937143 0 0 1 4.022857-69.485715l2.377143-15.177143v-2.377142c0-14.994286 0-28.525714-1.28-41.874286s-0.914286-25.782857-1.28-40.228572v-23.04a225.097143 225.097143 0 0 1 38.034286-14.994285c27.794286-7.68 48.091429-7.314286 60.525714 0 19.565714 12.434286 27.245714 48.091429 34.925714 93.44a251.611429 251.611429 0 0 1-1.28 89.6z m274.285714 150.674285a137.874286 137.874286 0 0 0-12.982857 67.108572 223.817143 223.817143 0 0 1-2.194285 31.085714c-4.937143 27.611429-7.497143 54.857143-10.057143 82.285714-8.045714 87.588571-15.725714 142.08-73.142857 159.817143a113.371429 113.371429 0 0 1-54.857143 6.765715c-50.834286-14.445714-49.371429-118.308571-48.091429-201.142858V713.142857c0-50.834286 0-103.314286-54.857143-125.074286l11.885715-34.011428a436.845714 436.845714 0 0 0 25.6-70.217143 304.457143 304.457143 0 0 0 1.645714-112.091429c-8.411429-48.822857-18.285714-104.228571-59.794286-130.742857-26.331429-16.822857-60.708571-18.285714-104.777143-7.131428-5.485714 1.462857-10.971429 3.291429-16.274285 5.12 13.531429-75.154286 51.2-134.4 101.851428-157.257143l45.897143-12.8 23.04-2.011429a318.902857 318.902857 0 0 1 73.142857 8.96 272.091429 272.091429 0 0 1 178.651429 149.028572 128 128 0 0 0-93.257143 42.788571c-24.32 30.354286-28.525714 73.142857-12.617143 128a803.474286 803.474286 0 0 0 102.4 204.251429 67.108571 67.108571 0 0 0-21.942857 20.114285z m51.2-320.914285a122.331429 122.331429 0 0 1-8.594285 29.988571 173.348571 173.348571 0 0 0-10.788572 42.788572v2.925714l8.594286 89.965714a129.462857 129.462857 0 0 1-4.937143 51.931429 604.342857 604.342857 0 0 1-64.182857-138.971429c-7.131429-24.502857-12.617143-57.6 2.742857-76.982857 12.617143-15.908571 39.862857-23.771429 78.811429-22.674286z m131.84-37.485715c-5.485714 24.32-9.874286 46.994286-13.897142 68.571429-11.885714 62.537143-22.308571 111.725714-52.297143 163.474286-9.142857 15.725714-20.48 33.828571-30.354286 47.908571 0-2.377143 1.097143-4.754286 1.645714-7.131428a187.611429 187.611429 0 0 0 6.948572-75.885715l-7.862857-82.468571a128 128 0 0 1 7.497142-28.708572 172.982857 172.982857 0 0 0 10.788572-42.788571l3.108571-27.428571h-2.377143l-13.897142-36.571429a363.154286 363.154286 0 0 0-143.908572-182.857143l14.811429-2.925714h1.828571c96.182857 0 143.542857 21.942857 188.16 57.234286A113.737143 113.737143 0 0 1 941.897143 146.285714c10.422857 24.868571 6.034286 77.348571-2.56 115.382857z" p-id="4384" fill="#42CAC7"></path><path d="M873.691429 650.605714c-16.822857-3.108571-28.342857-12.982857-43.337143-15.177143-19.931429 10.605714-29.074286 12.617143-28.16 44.434286 49.92 24.32 145.188571-9.325714 167.497143-36.571428-28.708571 3.474286-62.354286 13.714286-96 7.314285zM467.382857 638.902857l-48.091428 51.565714c-20.662857 13.348571-54.857143 18.285714-80.822858 24.502858l1.097143 2.377142c54.857143 18.285714 100.571429 14.811429 139.337143-18.285714 19.565714-15.36 28.708571-59.062857-11.52-60.16zM774.765714 302.262857a59.428571 59.428571 0 0 0-26.88 8.228572 14.994286 14.994286 0 0 0-4.754285 10.605714 45.897143 45.897143 0 0 0 26.88 15.177143c12.982857-8.411429 18.285714-9.142857 25.782857-22.308572a25.051429 25.051429 0 0 0-21.028572-11.702857zM409.417143 310.857143l-10.605714 5.851428-1.097143 2.377143c1.28 27.794286 44.251429 38.4 54.857143 12.8l1.097142-9.325714a61.805714 61.805714 0 0 0-44.251428-11.702857z" p-id="4385" fill="#42CAC7"></path></svg>