<?xml version="1.0" standalone="no"?><!DOCTYPE svg PUBLIC "-//W3C//DTD SVG 1.1//EN" "http://www.w3.org/Graphics/SVG/1.1/DTD/svg11.dtd"><svg t="1545216970053" class="icon" style="" viewBox="0 0 1084 1024" version="1.1" xmlns="http://www.w3.org/2000/svg" p-id="2782" xmlns:xlink="http://www.w3.org/1999/xlink" width="33.875" height="32"><defs><style type="text/css"></style></defs><path d="M704.808016 1024c-19.734215 0-38.906057-8.154423-51.284675-21.817555-16.877611-18.500827-70.335095-66.602977-114.091628-66.602977-43.449783 0-97.731657 48.376946-113.324755 65.331244-12.353056 13.43307-31.390695 21.440509-50.926801 21.44051-9.304734 0-18.085437-1.776591-26.099266-5.30421l-1.405936-0.613499-133.007844-74.386744-1.322857-0.93303c-24.214036-16.941517-33.429301-50.102412-21.434119-77.102755 0.089469-0.21089 12.263588-28.304028 12.263588-53.923999 0-77.735426-63.241514-140.983331-140.989721-140.983331h-4.709883l-0.856342 0.012781c-22.271289 0-40.40146-19.78534-46.197747-50.402771-0.460124-2.447605-11.34973-60.525503-11.34973-106.269516 0-45.750404 10.883215-103.821912 11.34973-106.269517 5.860193-31.007258 24.386582-50.920411 47.047699-50.383599h4.709882c77.741817 0 140.989721-63.247905 140.989721-140.989721 0-25.607189-12.167729-53.693937-12.295541-53.975124-11.982401-26.987562-2.70962-60.135676 21.606666-77.032459l1.380372-0.958592 140.369832-77.096365 1.463451-0.619889c7.898799-3.367853 16.55808-5.080538 25.728611-5.080538 19.484981 0 38.567354 7.847674 51.035441 20.986775 16.615596 17.395251 69.127269 62.634406 111.631242 62.634406 42.107754 0 94.293506-44.344469 110.857977-61.43297 12.38501-12.870696 31.326789-20.577776 50.639224-20.577777 9.355859 0 18.174906 1.7702 26.201516 5.259476l1.425107 0.619889 135.576872 75.319774 1.335638 0.93303c24.252379 16.928736 33.499597 50.07685 21.491634 77.109146-0.10225 0.2045-12.269978 28.297638-12.269978 53.917608 0 77.741817 63.241514 140.989721 140.983331 140.989722h4.716272c22.629163-0.504858 41.174725 19.376341 47.041309 50.383599 0.460124 2.447605 11.343339 60.525503 11.343339 106.275907 0 45.744013-10.883215 103.828302-11.343339 106.269517-5.866583 31.007258-24.412145 50.850114-47.041309 50.389989h-4.716272c-77.729035 0-140.983331 63.241514-140.983331 140.983331 0 25.619971 12.167729 53.693937 12.295541 53.981515 11.96962 26.962 2.722401 60.110113-21.555541 77.038849l-1.3612 0.933029-137.858321 76.201679-1.437888 0.62628c-7.886017 3.399807-16.506955 5.118882-25.619971 5.118882z m0.325922-52.198533c0.639061 0.408999 2.422043 1.124748 4.307273 1.124748l0.210891-0.006391 132.471033-73.217262c-3.195307-7.432284-17.817031-43.488127-17.817032-81.084108 0-112.468412 88.586688-204.633844 199.636385-210.404568 1.597653-8.831828 10.276107-58.467726 10.276107-95.725004 0-37.250888-8.678454-86.880394-10.276107-95.725004-111.049696-5.770724-199.636384-97.936156-199.636385-210.404568 0-37.659887 14.672849-73.760464 17.848985-81.128842l-130.342959-72.405654a7.400331 7.400331 0 0 0-0.536812-0.019172c-2.223934 0-4.300883 0.805217-4.978288 1.271732-2.198371 2.249496-21.082635 21.408556-48.217181 40.497319-40.165008 28.259294-78.150816 42.58705-112.896583 42.587051-35.08447 0-73.370637-14.608943-113.80405-43.424221-27.300702-19.459419-46.280825-38.982744-48.472806-41.270584-0.690186-0.479296-2.792698-1.310076-5.035803-1.310076l-0.466515 0.012782-134.982545 74.13112c3.233651 7.521752 17.810641 43.513689 17.810641 81.045764 0 112.468412-88.593079 204.633844-199.649165 210.404568-1.597653 8.831828-10.276107 58.474116-10.276107 95.725004 0 37.238107 8.672063 86.880394 10.276107 95.725004 111.056086 5.764334 199.642775 97.942547 199.642774 210.404568 0 37.730184-14.723974 73.901058-17.855374 81.179967l127.76115 71.434281a9.074672 9.074672 0 0 0 4.543727-1.073623c2.39009-2.569027 21.472462-22.769757 48.958492-42.912972 40.970225-30.016713 79.901844-45.245546 115.714844-45.245546 36.164483 0 75.38368 15.51641 116.596748 46.11467 27.645795 20.520261 46.804855 41.098037 49.188555 43.699017z" p-id="2783" fill="#42CAC7"></path><path d="M539.891837 699.510194c-103.527943 0-187.756233-84.22829-187.756233-187.756233s84.22829-187.756233 187.756233-187.756233c103.534334 0 187.756233 84.22829 187.756233 187.756233s-84.221899 187.756233-187.756233 187.756233z m0-321.236983c-73.600699 0-133.48075 59.880051-133.48075 133.48075 0 73.60709 59.880051 133.48075 133.48075 133.480751 73.600699 0 133.48075-59.873661 133.48075-133.480751 0-73.600699-59.873661-133.48075-133.48075-133.48075z" p-id="2784" fill="#42CAC7"></path></svg>