<?xml version="1.0" standalone="no"?><!DOCTYPE svg PUBLIC "-//W3C//DTD SVG 1.1//EN" "http://www.w3.org/Graphics/SVG/1.1/DTD/svg11.dtd"><svg t="1545224377007" class="icon" style="" viewBox="0 0 1024 1024" version="1.1" xmlns="http://www.w3.org/2000/svg" p-id="4629" xmlns:xlink="http://www.w3.org/1999/xlink" width="32" height="32"><defs><style type="text/css"></style></defs><path d="M883.69 23.2C839.776-15.966 786.596-0.234 734.116 46.346c-7.784 6.918-15.568 14.596-23.294 22.796-12.134 12.866-24.128 27.258-35.904 42.782a103.39 103.39 0 0 0-39.572-7.86h-435.22c-57.538 0-104.616 47.08-104.616 104.616v435.226c0 57.538 47.078 104.614 104.616 104.614H506.28c3.676 20.292 5.822 34.73 5.822 34.73s0.274 3.786 0.732 9.6c-1.688 39.338-0.674 80.126 2.37 116.986 4.04 48.804 11.63 90.722 21.316 113.162l6.57-3.594c-14.212-44.196-19.994-102.126-17.46-168.936 3.826-102.108 27.326-225.258 70.74-353.608 73.356-193.758 175.132-349.216 268.284-423.462-84.9 76.674-199.808 324.864-234.2 416.772-38.518 102.918-65.804 199.498-82.26 292.032 28.374-86.748 120.134-124.034 120.134-124.034s45.012-55.498 97.61-134.8c-31.506 7.176-83.238 19.486-100.57 26.764-25.558 10.72-32.446 14.378-32.446 14.378s82.796-50.422 153.832-73.248c97.694-153.86 204.124-372.446 96.936-468.062zM511.814 475.54c10.084 20.452 17.96 46.55 23.15 66.486a640.8 640.8 0 0 1 3.484 14.006c2.284 9.664 3.506 15.936 3.506 15.936s-0.802-3.044-4.106-12.626c-0.626-1.838-1.33-3.844-2.162-6.206a68.564 68.564 0 0 0-1.384-3.426c-5.86-13.608-22.056-42.346-29.188-54.852-6.096 17.986-11.486 34.814-15.994 50.042 20.58 37.652 33.124 102.192 33.124 102.192s-1.09-4.184-6.258-18.78c-4.596-12.908-27.464-52.988-32.882-62.354-9.266 34.216-12.946 57.304-9.626 62.944 4.898 8.268 9.614 21.118 13.964 35.93H200.126c-11.34 0-20.922-9.588-20.922-20.926V208.682c0-11.34 9.582-20.922 20.922-20.922h424.472c-52.98 90.304-95.58 198.234-112.784 287.78z" fill="#42CAC7" p-id="4630"></path></svg>