<?xml version="1.0" standalone="no"?><!DOCTYPE svg PUBLIC "-//W3C//DTD SVG 1.1//EN" "http://www.w3.org/Graphics/SVG/1.1/DTD/svg11.dtd"><svg t="1545216026244" class="icon" style="" viewBox="0 0 1024 1024" version="1.1" xmlns="http://www.w3.org/2000/svg" p-id="1149" xmlns:xlink="http://www.w3.org/1999/xlink" width="32" height="32"><defs><style type="text/css"></style></defs><path d="M796.8 64c16 0 32 16 32 32v832c0 16-16 32-32 32H355.2l-188.8-192V96c0-16 16-32 32-32h598.4m0-64H201.6c-51.2 0-96 44.8-96 96v697.6l224 230.4h467.2c51.2 0 96-44.8 96-96V96c0-51.2-44.8-96-96-96z" fill="#42CAC7" p-id="1150"></path><path d="M416 291.2H230.4c-3.2 0-3.2-3.2-3.2-3.2V198.4c0-3.2 0-3.2 3.2-3.2H416c3.2 0 3.2 0 3.2 3.2V288l-3.2 3.2zM768 435.2H230.4c-3.2 0-3.2 0-3.2-3.2v-57.6c0-3.2 0-3.2 3.2-3.2H768c3.2 0 3.2 0 3.2 3.2v57.6l-3.2 3.2zM768 595.2H230.4c-3.2 0-3.2 0-3.2-3.2v-57.6c0-3.2 0-3.2 3.2-3.2H768c3.2 0 3.2 0 3.2 3.2v57.6l-3.2 3.2z" fill="#42CAC7" p-id="1151"></path><path d="M352 1004.8v-198.4H160v-64h224c19.2 0 32 12.8 32 32v230.4h-64z" p-id="1152" fill="#42CAC7"></path></svg>